<mxfile host="Electron" modified="2025-05-15T20:21:30.561Z" agent="Mozilla/5.0 (Windows NT 10.0; Win64; x64) AppleWebKit/537.36 (KHTML, like Gecko) draw.io/24.5.3 Chrome/124.0.6367.207 Electron/30.0.6 Safari/537.36" etag="yc3wA8Y7nT2SDa4kfBKX" version="24.5.3" type="device">
  <diagram name="Страница — 1" id="kTEbBI36aKeItb0uaw7n">
    <mxGraphModel dx="2709" dy="1129" grid="0" gridSize="10" guides="1" tooltips="1" connect="1" arrows="1" fold="1" page="0" pageScale="1" pageWidth="2339" pageHeight="3300" math="0" shadow="0">
      <root>
        <mxCell id="0" />
        <mxCell id="1" parent="0" />
        <mxCell id="VWLYYpRRFsJjLY1fVOsa-2" value="" style="ellipse;whiteSpace=wrap;html=1;aspect=fixed;fillColor=#000000;" vertex="1" parent="1">
          <mxGeometry x="50" y="340" width="60" height="60" as="geometry" />
        </mxCell>
        <mxCell id="VWLYYpRRFsJjLY1fVOsa-3" value="" style="endArrow=classic;html=1;rounded=0;strokeWidth=2;exitX=0.5;exitY=1;exitDx=0;exitDy=0;" edge="1" parent="1" source="VWLYYpRRFsJjLY1fVOsa-2" target="VWLYYpRRFsJjLY1fVOsa-4">
          <mxGeometry width="50" height="50" relative="1" as="geometry">
            <mxPoint x="70" y="840" as="sourcePoint" />
            <mxPoint x="80" y="480" as="targetPoint" />
          </mxGeometry>
        </mxCell>
        <mxCell id="VWLYYpRRFsJjLY1fVOsa-4" value="Загрузка приложения" style="rounded=1;whiteSpace=wrap;html=1;" vertex="1" parent="1">
          <mxGeometry x="20" y="450" width="120" height="60" as="geometry" />
        </mxCell>
        <mxCell id="VWLYYpRRFsJjLY1fVOsa-5" value="" style="endArrow=classic;html=1;rounded=0;strokeWidth=2;exitX=0.5;exitY=1;exitDx=0;exitDy=0;" edge="1" parent="1" source="VWLYYpRRFsJjLY1fVOsa-4">
          <mxGeometry width="50" height="50" relative="1" as="geometry">
            <mxPoint x="90" y="410" as="sourcePoint" />
            <mxPoint x="80" y="560" as="targetPoint" />
          </mxGeometry>
        </mxCell>
        <mxCell id="VWLYYpRRFsJjLY1fVOsa-6" value="" style="endArrow=none;html=1;rounded=0;strokeWidth=5;" edge="1" parent="1">
          <mxGeometry width="50" height="50" relative="1" as="geometry">
            <mxPoint x="-720" y="560" as="sourcePoint" />
            <mxPoint x="920" y="560" as="targetPoint" />
          </mxGeometry>
        </mxCell>
        <mxCell id="VWLYYpRRFsJjLY1fVOsa-10" value="" style="endArrow=classic;html=1;rounded=0;strokeWidth=2;exitX=0.5;exitY=1;exitDx=0;exitDy=0;" edge="1" parent="1" target="VWLYYpRRFsJjLY1fVOsa-11">
          <mxGeometry width="50" height="50" relative="1" as="geometry">
            <mxPoint x="-280" y="560" as="sourcePoint" />
            <mxPoint x="-280" y="640" as="targetPoint" />
          </mxGeometry>
        </mxCell>
        <mxCell id="VWLYYpRRFsJjLY1fVOsa-11" value="Просмотр страницы &quot;Устройство автомобиля&quot;" style="rounded=1;whiteSpace=wrap;html=1;" vertex="1" parent="1">
          <mxGeometry x="-340" y="610" width="120" height="60" as="geometry" />
        </mxCell>
        <mxCell id="VWLYYpRRFsJjLY1fVOsa-12" value="" style="endArrow=classic;html=1;rounded=0;strokeWidth=2;exitX=0.5;exitY=1;exitDx=0;exitDy=0;" edge="1" parent="1" source="VWLYYpRRFsJjLY1fVOsa-11">
          <mxGeometry width="50" height="50" relative="1" as="geometry">
            <mxPoint x="-270" y="570" as="sourcePoint" />
            <mxPoint x="-280" y="720" as="targetPoint" />
          </mxGeometry>
        </mxCell>
        <mxCell id="VWLYYpRRFsJjLY1fVOsa-13" value="" style="endArrow=none;html=1;rounded=0;strokeWidth=5;fontStyle=1" edge="1" parent="1">
          <mxGeometry width="50" height="50" relative="1" as="geometry">
            <mxPoint x="-720" y="720" as="sourcePoint" />
            <mxPoint x="160" y="720" as="targetPoint" />
          </mxGeometry>
        </mxCell>
        <mxCell id="VWLYYpRRFsJjLY1fVOsa-14" value="" style="endArrow=classic;html=1;rounded=0;strokeWidth=2;exitX=0.5;exitY=1;exitDx=0;exitDy=0;" edge="1" parent="1" target="VWLYYpRRFsJjLY1fVOsa-15">
          <mxGeometry width="50" height="50" relative="1" as="geometry">
            <mxPoint x="-660" y="720" as="sourcePoint" />
            <mxPoint x="-660" y="800" as="targetPoint" />
          </mxGeometry>
        </mxCell>
        <mxCell id="VWLYYpRRFsJjLY1fVOsa-15" value="Просмотр блока &quot;Несущая система кузова&quot;" style="rounded=1;whiteSpace=wrap;html=1;" vertex="1" parent="1">
          <mxGeometry x="-720" y="770" width="120" height="60" as="geometry" />
        </mxCell>
        <mxCell id="VWLYYpRRFsJjLY1fVOsa-16" value="" style="endArrow=classic;html=1;rounded=0;strokeWidth=2;exitX=0.5;exitY=1;exitDx=0;exitDy=0;" edge="1" parent="1" source="VWLYYpRRFsJjLY1fVOsa-15">
          <mxGeometry width="50" height="50" relative="1" as="geometry">
            <mxPoint x="-650" y="730" as="sourcePoint" />
            <mxPoint x="-660" y="880" as="targetPoint" />
          </mxGeometry>
        </mxCell>
        <mxCell id="VWLYYpRRFsJjLY1fVOsa-17" value="" style="endArrow=classic;html=1;rounded=0;strokeWidth=2;exitX=0.5;exitY=1;exitDx=0;exitDy=0;" edge="1" parent="1" target="VWLYYpRRFsJjLY1fVOsa-18">
          <mxGeometry width="50" height="50" relative="1" as="geometry">
            <mxPoint x="-510" y="720" as="sourcePoint" />
            <mxPoint x="-510" y="800" as="targetPoint" />
          </mxGeometry>
        </mxCell>
        <mxCell id="VWLYYpRRFsJjLY1fVOsa-18" value="Просмотр блока &quot;Дивгатель&quot;" style="rounded=1;whiteSpace=wrap;html=1;" vertex="1" parent="1">
          <mxGeometry x="-570" y="770" width="120" height="60" as="geometry" />
        </mxCell>
        <mxCell id="VWLYYpRRFsJjLY1fVOsa-19" value="" style="endArrow=classic;html=1;rounded=0;strokeWidth=2;exitX=0.5;exitY=1;exitDx=0;exitDy=0;" edge="1" parent="1" source="VWLYYpRRFsJjLY1fVOsa-18">
          <mxGeometry width="50" height="50" relative="1" as="geometry">
            <mxPoint x="-500" y="730" as="sourcePoint" />
            <mxPoint x="-510" y="880" as="targetPoint" />
          </mxGeometry>
        </mxCell>
        <mxCell id="VWLYYpRRFsJjLY1fVOsa-20" value="" style="endArrow=classic;html=1;rounded=0;strokeWidth=2;exitX=0.5;exitY=1;exitDx=0;exitDy=0;" edge="1" parent="1" target="VWLYYpRRFsJjLY1fVOsa-21">
          <mxGeometry width="50" height="50" relative="1" as="geometry">
            <mxPoint x="-360" y="720" as="sourcePoint" />
            <mxPoint x="-360" y="800" as="targetPoint" />
          </mxGeometry>
        </mxCell>
        <mxCell id="VWLYYpRRFsJjLY1fVOsa-21" value="Просмотр блока &quot;Трансмиссия&quot;" style="rounded=1;whiteSpace=wrap;html=1;" vertex="1" parent="1">
          <mxGeometry x="-420" y="770" width="120" height="60" as="geometry" />
        </mxCell>
        <mxCell id="VWLYYpRRFsJjLY1fVOsa-22" value="" style="endArrow=classic;html=1;rounded=0;strokeWidth=2;exitX=0.5;exitY=1;exitDx=0;exitDy=0;" edge="1" parent="1" source="VWLYYpRRFsJjLY1fVOsa-21">
          <mxGeometry width="50" height="50" relative="1" as="geometry">
            <mxPoint x="-350" y="730" as="sourcePoint" />
            <mxPoint x="-360" y="880" as="targetPoint" />
          </mxGeometry>
        </mxCell>
        <mxCell id="VWLYYpRRFsJjLY1fVOsa-23" value="" style="endArrow=classic;html=1;rounded=0;strokeWidth=2;exitX=0.5;exitY=1;exitDx=0;exitDy=0;" edge="1" parent="1" target="VWLYYpRRFsJjLY1fVOsa-24">
          <mxGeometry width="50" height="50" relative="1" as="geometry">
            <mxPoint x="-210" y="720" as="sourcePoint" />
            <mxPoint x="-210" y="800" as="targetPoint" />
          </mxGeometry>
        </mxCell>
        <mxCell id="VWLYYpRRFsJjLY1fVOsa-24" value="Просмотр блока &quot;Ходовая часть&quot;" style="rounded=1;whiteSpace=wrap;html=1;" vertex="1" parent="1">
          <mxGeometry x="-270" y="770" width="120" height="60" as="geometry" />
        </mxCell>
        <mxCell id="VWLYYpRRFsJjLY1fVOsa-25" value="" style="endArrow=classic;html=1;rounded=0;strokeWidth=2;exitX=0.5;exitY=1;exitDx=0;exitDy=0;" edge="1" parent="1" source="VWLYYpRRFsJjLY1fVOsa-24">
          <mxGeometry width="50" height="50" relative="1" as="geometry">
            <mxPoint x="-200" y="730" as="sourcePoint" />
            <mxPoint x="-210" y="880" as="targetPoint" />
          </mxGeometry>
        </mxCell>
        <mxCell id="VWLYYpRRFsJjLY1fVOsa-26" value="" style="endArrow=classic;html=1;rounded=0;strokeWidth=2;exitX=0.5;exitY=1;exitDx=0;exitDy=0;" edge="1" parent="1" target="VWLYYpRRFsJjLY1fVOsa-27">
          <mxGeometry width="50" height="50" relative="1" as="geometry">
            <mxPoint x="-60" y="720" as="sourcePoint" />
            <mxPoint x="-60" y="800" as="targetPoint" />
          </mxGeometry>
        </mxCell>
        <mxCell id="VWLYYpRRFsJjLY1fVOsa-27" value="Просмотр блока &quot;Системы управления&quot;" style="rounded=1;whiteSpace=wrap;html=1;" vertex="1" parent="1">
          <mxGeometry x="-120" y="770" width="120" height="60" as="geometry" />
        </mxCell>
        <mxCell id="VWLYYpRRFsJjLY1fVOsa-28" value="" style="endArrow=classic;html=1;rounded=0;strokeWidth=2;exitX=0.5;exitY=1;exitDx=0;exitDy=0;" edge="1" parent="1" source="VWLYYpRRFsJjLY1fVOsa-27">
          <mxGeometry width="50" height="50" relative="1" as="geometry">
            <mxPoint x="-50" y="730" as="sourcePoint" />
            <mxPoint x="-60" y="880" as="targetPoint" />
          </mxGeometry>
        </mxCell>
        <mxCell id="VWLYYpRRFsJjLY1fVOsa-29" value="" style="endArrow=classic;html=1;rounded=0;strokeWidth=2;exitX=0.5;exitY=1;exitDx=0;exitDy=0;" edge="1" parent="1" target="VWLYYpRRFsJjLY1fVOsa-30">
          <mxGeometry width="50" height="50" relative="1" as="geometry">
            <mxPoint x="90" y="720" as="sourcePoint" />
            <mxPoint x="90" y="800" as="targetPoint" />
          </mxGeometry>
        </mxCell>
        <mxCell id="VWLYYpRRFsJjLY1fVOsa-30" value="Просмотр блока &quot;Электрооборудование&quot;" style="rounded=1;whiteSpace=wrap;html=1;" vertex="1" parent="1">
          <mxGeometry x="20" y="770" width="140" height="60" as="geometry" />
        </mxCell>
        <mxCell id="VWLYYpRRFsJjLY1fVOsa-31" value="" style="endArrow=classic;html=1;rounded=0;strokeWidth=2;exitX=0.5;exitY=1;exitDx=0;exitDy=0;" edge="1" parent="1" source="VWLYYpRRFsJjLY1fVOsa-30">
          <mxGeometry width="50" height="50" relative="1" as="geometry">
            <mxPoint x="100" y="730" as="sourcePoint" />
            <mxPoint x="90" y="880" as="targetPoint" />
          </mxGeometry>
        </mxCell>
        <mxCell id="VWLYYpRRFsJjLY1fVOsa-32" value="Просмотр подробной информации" style="rounded=1;whiteSpace=wrap;html=1;" vertex="1" parent="1">
          <mxGeometry x="-720" y="880" width="120" height="60" as="geometry" />
        </mxCell>
        <mxCell id="VWLYYpRRFsJjLY1fVOsa-33" value="" style="endArrow=classic;html=1;rounded=0;strokeWidth=2;exitX=0.5;exitY=1;exitDx=0;exitDy=0;" edge="1" parent="1" source="VWLYYpRRFsJjLY1fVOsa-32">
          <mxGeometry width="50" height="50" relative="1" as="geometry">
            <mxPoint x="-650" y="840" as="sourcePoint" />
            <mxPoint x="-660" y="1000" as="targetPoint" />
          </mxGeometry>
        </mxCell>
        <mxCell id="VWLYYpRRFsJjLY1fVOsa-38" value="Просмотр подробной информации" style="rounded=1;whiteSpace=wrap;html=1;" vertex="1" parent="1">
          <mxGeometry x="-570" y="880" width="120" height="60" as="geometry" />
        </mxCell>
        <mxCell id="VWLYYpRRFsJjLY1fVOsa-39" value="" style="endArrow=classic;html=1;rounded=0;strokeWidth=2;exitX=0.5;exitY=1;exitDx=0;exitDy=0;" edge="1" parent="1" source="VWLYYpRRFsJjLY1fVOsa-38">
          <mxGeometry width="50" height="50" relative="1" as="geometry">
            <mxPoint x="-500" y="840" as="sourcePoint" />
            <mxPoint x="-510" y="1000" as="targetPoint" />
          </mxGeometry>
        </mxCell>
        <mxCell id="VWLYYpRRFsJjLY1fVOsa-40" value="Просмотр подробной информации" style="rounded=1;whiteSpace=wrap;html=1;" vertex="1" parent="1">
          <mxGeometry x="-420" y="880" width="120" height="60" as="geometry" />
        </mxCell>
        <mxCell id="VWLYYpRRFsJjLY1fVOsa-41" value="" style="endArrow=classic;html=1;rounded=0;strokeWidth=2;exitX=0.5;exitY=1;exitDx=0;exitDy=0;" edge="1" parent="1" source="VWLYYpRRFsJjLY1fVOsa-40">
          <mxGeometry width="50" height="50" relative="1" as="geometry">
            <mxPoint x="-350" y="840" as="sourcePoint" />
            <mxPoint x="-360" y="1000" as="targetPoint" />
          </mxGeometry>
        </mxCell>
        <mxCell id="VWLYYpRRFsJjLY1fVOsa-42" value="Просмотр подробной информации" style="rounded=1;whiteSpace=wrap;html=1;" vertex="1" parent="1">
          <mxGeometry x="-270" y="880" width="120" height="60" as="geometry" />
        </mxCell>
        <mxCell id="VWLYYpRRFsJjLY1fVOsa-43" value="" style="endArrow=classic;html=1;rounded=0;strokeWidth=2;exitX=0.5;exitY=1;exitDx=0;exitDy=0;" edge="1" parent="1" source="VWLYYpRRFsJjLY1fVOsa-42">
          <mxGeometry width="50" height="50" relative="1" as="geometry">
            <mxPoint x="-200" y="840" as="sourcePoint" />
            <mxPoint x="-210" y="1000" as="targetPoint" />
          </mxGeometry>
        </mxCell>
        <mxCell id="VWLYYpRRFsJjLY1fVOsa-44" value="Просмотр подробной информации" style="rounded=1;whiteSpace=wrap;html=1;" vertex="1" parent="1">
          <mxGeometry x="-120" y="880" width="120" height="60" as="geometry" />
        </mxCell>
        <mxCell id="VWLYYpRRFsJjLY1fVOsa-45" value="" style="endArrow=classic;html=1;rounded=0;strokeWidth=2;exitX=0.5;exitY=1;exitDx=0;exitDy=0;" edge="1" parent="1" source="VWLYYpRRFsJjLY1fVOsa-44">
          <mxGeometry width="50" height="50" relative="1" as="geometry">
            <mxPoint x="-50" y="840" as="sourcePoint" />
            <mxPoint x="-60" y="1000" as="targetPoint" />
          </mxGeometry>
        </mxCell>
        <mxCell id="VWLYYpRRFsJjLY1fVOsa-46" value="Просмотр подробной информации" style="rounded=1;whiteSpace=wrap;html=1;" vertex="1" parent="1">
          <mxGeometry x="30" y="880" width="120" height="60" as="geometry" />
        </mxCell>
        <mxCell id="VWLYYpRRFsJjLY1fVOsa-47" value="" style="endArrow=classic;html=1;rounded=0;strokeWidth=2;exitX=0.5;exitY=1;exitDx=0;exitDy=0;" edge="1" parent="1" source="VWLYYpRRFsJjLY1fVOsa-46">
          <mxGeometry width="50" height="50" relative="1" as="geometry">
            <mxPoint x="100" y="840" as="sourcePoint" />
            <mxPoint x="90" y="1000" as="targetPoint" />
          </mxGeometry>
        </mxCell>
        <mxCell id="VWLYYpRRFsJjLY1fVOsa-48" value="" style="endArrow=classic;html=1;rounded=0;strokeWidth=2;exitX=0.5;exitY=1;exitDx=0;exitDy=0;" edge="1" parent="1" target="VWLYYpRRFsJjLY1fVOsa-49">
          <mxGeometry width="50" height="50" relative="1" as="geometry">
            <mxPoint x="380" y="560" as="sourcePoint" />
            <mxPoint x="380" y="640" as="targetPoint" />
          </mxGeometry>
        </mxCell>
        <mxCell id="VWLYYpRRFsJjLY1fVOsa-49" value="Просмотр страницы &quot;Марки автомобилей&quot;" style="rounded=1;whiteSpace=wrap;html=1;" vertex="1" parent="1">
          <mxGeometry x="320" y="610" width="120" height="60" as="geometry" />
        </mxCell>
        <mxCell id="VWLYYpRRFsJjLY1fVOsa-50" value="" style="endArrow=classic;html=1;rounded=0;strokeWidth=2;exitX=0.5;exitY=1;exitDx=0;exitDy=0;" edge="1" parent="1" source="VWLYYpRRFsJjLY1fVOsa-49">
          <mxGeometry width="50" height="50" relative="1" as="geometry">
            <mxPoint x="390" y="570" as="sourcePoint" />
            <mxPoint x="380" y="720" as="targetPoint" />
          </mxGeometry>
        </mxCell>
        <mxCell id="VWLYYpRRFsJjLY1fVOsa-51" value="Выбор марки автомобиля" style="rounded=1;whiteSpace=wrap;html=1;" vertex="1" parent="1">
          <mxGeometry x="320" y="720" width="120" height="60" as="geometry" />
        </mxCell>
        <mxCell id="VWLYYpRRFsJjLY1fVOsa-52" value="" style="endArrow=classic;html=1;rounded=0;strokeWidth=2;exitX=0.5;exitY=1;exitDx=0;exitDy=0;" edge="1" parent="1" source="VWLYYpRRFsJjLY1fVOsa-51">
          <mxGeometry width="50" height="50" relative="1" as="geometry">
            <mxPoint x="390" y="680" as="sourcePoint" />
            <mxPoint x="380" y="830" as="targetPoint" />
          </mxGeometry>
        </mxCell>
        <mxCell id="VWLYYpRRFsJjLY1fVOsa-53" value="Просмотр информации" style="rounded=1;whiteSpace=wrap;html=1;" vertex="1" parent="1">
          <mxGeometry x="320" y="830" width="120" height="60" as="geometry" />
        </mxCell>
        <mxCell id="VWLYYpRRFsJjLY1fVOsa-54" value="" style="endArrow=classic;html=1;rounded=0;strokeWidth=2;exitX=0.5;exitY=1;exitDx=0;exitDy=0;" edge="1" parent="1" source="VWLYYpRRFsJjLY1fVOsa-53">
          <mxGeometry width="50" height="50" relative="1" as="geometry">
            <mxPoint x="390" y="790" as="sourcePoint" />
            <mxPoint x="380" y="1000" as="targetPoint" />
          </mxGeometry>
        </mxCell>
        <mxCell id="VWLYYpRRFsJjLY1fVOsa-55" value="" style="endArrow=classic;html=1;rounded=0;strokeWidth=2;exitX=0.5;exitY=1;exitDx=0;exitDy=0;" edge="1" parent="1" target="VWLYYpRRFsJjLY1fVOsa-56">
          <mxGeometry width="50" height="50" relative="1" as="geometry">
            <mxPoint x="610" y="560" as="sourcePoint" />
            <mxPoint x="610" y="640" as="targetPoint" />
          </mxGeometry>
        </mxCell>
        <mxCell id="VWLYYpRRFsJjLY1fVOsa-56" value="Просмотр страницы &quot;Частые вопросы (FAQ)&quot;" style="rounded=1;whiteSpace=wrap;html=1;" vertex="1" parent="1">
          <mxGeometry x="550" y="610" width="120" height="60" as="geometry" />
        </mxCell>
        <mxCell id="VWLYYpRRFsJjLY1fVOsa-57" value="" style="endArrow=classic;html=1;rounded=0;strokeWidth=2;exitX=0.5;exitY=1;exitDx=0;exitDy=0;" edge="1" parent="1">
          <mxGeometry width="50" height="50" relative="1" as="geometry">
            <mxPoint x="610" y="670" as="sourcePoint" />
            <mxPoint x="610" y="720" as="targetPoint" />
          </mxGeometry>
        </mxCell>
        <mxCell id="VWLYYpRRFsJjLY1fVOsa-58" value="Просмотр информации" style="rounded=1;whiteSpace=wrap;html=1;" vertex="1" parent="1">
          <mxGeometry x="550" y="720" width="120" height="60" as="geometry" />
        </mxCell>
        <mxCell id="VWLYYpRRFsJjLY1fVOsa-59" value="" style="endArrow=classic;html=1;rounded=0;strokeWidth=2;exitX=0.5;exitY=1;exitDx=0;exitDy=0;" edge="1" parent="1">
          <mxGeometry width="50" height="50" relative="1" as="geometry">
            <mxPoint x="609.44" y="780" as="sourcePoint" />
            <mxPoint x="610" y="1000" as="targetPoint" />
          </mxGeometry>
        </mxCell>
        <mxCell id="VWLYYpRRFsJjLY1fVOsa-60" value="" style="endArrow=classic;html=1;rounded=0;strokeWidth=2;exitX=0.5;exitY=1;exitDx=0;exitDy=0;" edge="1" parent="1" target="VWLYYpRRFsJjLY1fVOsa-61">
          <mxGeometry width="50" height="50" relative="1" as="geometry">
            <mxPoint x="840" y="560" as="sourcePoint" />
            <mxPoint x="840" y="640" as="targetPoint" />
          </mxGeometry>
        </mxCell>
        <mxCell id="VWLYYpRRFsJjLY1fVOsa-61" value="Просмотр страницы &quot;Справка&quot;" style="rounded=1;whiteSpace=wrap;html=1;" vertex="1" parent="1">
          <mxGeometry x="780" y="610" width="120" height="60" as="geometry" />
        </mxCell>
        <mxCell id="VWLYYpRRFsJjLY1fVOsa-62" value="" style="endArrow=classic;html=1;rounded=0;strokeWidth=2;exitX=0.5;exitY=1;exitDx=0;exitDy=0;" edge="1" parent="1">
          <mxGeometry width="50" height="50" relative="1" as="geometry">
            <mxPoint x="840" y="670" as="sourcePoint" />
            <mxPoint x="840" y="720" as="targetPoint" />
          </mxGeometry>
        </mxCell>
        <mxCell id="VWLYYpRRFsJjLY1fVOsa-63" value="Просмотр информации" style="rounded=1;whiteSpace=wrap;html=1;" vertex="1" parent="1">
          <mxGeometry x="780" y="720" width="120" height="60" as="geometry" />
        </mxCell>
        <mxCell id="VWLYYpRRFsJjLY1fVOsa-64" value="" style="endArrow=classic;html=1;rounded=0;strokeWidth=2;exitX=0.5;exitY=1;exitDx=0;exitDy=0;" edge="1" parent="1">
          <mxGeometry width="50" height="50" relative="1" as="geometry">
            <mxPoint x="839.44" y="780" as="sourcePoint" />
            <mxPoint x="839" y="1000" as="targetPoint" />
          </mxGeometry>
        </mxCell>
        <mxCell id="VWLYYpRRFsJjLY1fVOsa-65" value="" style="endArrow=none;html=1;rounded=0;strokeWidth=5;" edge="1" parent="1">
          <mxGeometry width="50" height="50" relative="1" as="geometry">
            <mxPoint x="-720" y="1000" as="sourcePoint" />
            <mxPoint x="920" y="1000" as="targetPoint" />
          </mxGeometry>
        </mxCell>
        <mxCell id="VWLYYpRRFsJjLY1fVOsa-66" value="" style="ellipse;whiteSpace=wrap;html=1;aspect=fixed;fillColor=#FFFFFF;" vertex="1" parent="1">
          <mxGeometry x="50" y="1040" width="60" height="60" as="geometry" />
        </mxCell>
        <mxCell id="VWLYYpRRFsJjLY1fVOsa-67" value="" style="endArrow=classic;html=1;rounded=0;strokeWidth=2;" edge="1" parent="1">
          <mxGeometry width="50" height="50" relative="1" as="geometry">
            <mxPoint x="79.8" y="1000" as="sourcePoint" />
            <mxPoint x="79.8" y="1040" as="targetPoint" />
          </mxGeometry>
        </mxCell>
        <mxCell id="VWLYYpRRFsJjLY1fVOsa-68" value="" style="ellipse;whiteSpace=wrap;html=1;aspect=fixed;strokeColor=#000000;fillColor=#000000;" vertex="1" parent="1">
          <mxGeometry x="60" y="1050" width="40" height="40" as="geometry" />
        </mxCell>
      </root>
    </mxGraphModel>
  </diagram>
</mxfile>
